<svg xmlns="http://www.w3.org/2000/svg" version="1.1" xmlns:xlink="http://www.w3.org/1999/xlink" xmlns:svgjs="http://svgjs.dev/svgjs" width="2048px" height="2048px"><svg width="2048px" height="2048px" viewBox="0 0 2048 2048" version="1.1" xmlns="http://www.w3.org/2000/svg" xmlns:xlink="http://www.w3.org/1999/xlink">
    <title>1024x1024@1x</title>
    <g id="SvgjsG1055" stroke="none" stroke-width="1" fill="none" fill-rule="evenodd">
        <g id="SvgjsG1054" transform="translate(-3015, -984)" fill-rule="nonzero" stroke-width="0.5">
            <path d="M230.511406,0 L6268.21696,0 C6319.61745,2.7504924 6370.18017,21.5544127 6409.92816,54.4688924 C6464.34713,98.2812141 6497.38033,166.560982 6499,236.351869 L6499,3858.40496 C6497.30163,3906.50683 6481.92997,3954.17695 6453.58824,3993.2121 C6411.08833,4053.29119 6339.78719,4092.113 6266.11494,4094 C6251.22816,4091.32824 6236.12814,4092.81142 6221.16013,4092.51682 C4261.6177,4092.48888 2302.07527,4092.51682 342.504916,4092.51682 C306.907659,4093.27111 271.150466,4090.9803 235.662371,4093.67746 C143.381649,4093.94667 55.6857676,4033.21996 19.8473367,3948.72676 C8.16944609,3921.99137 1.8862332,3893.1785 0,3864.1523 L0,230.657867 C3.07433164,165.237799 33.492698,101.516789 83.3801391,58.9438394 C123.912574,23.3093437 176.767723,2.77842907 230.511406,0 M69.3311289,125.715027 C45.0335004,161.514603 32.6016242,205.057716 33.6805598,248.275749 C33.7338719,1435.3202 33.6805598,2622.33926 33.7084852,3809.38626 C34.1400594,3836.4188 31.9568016,3863.74594 37.3210152,3890.4534 C46.8943469,3942.35974 77.2060891,3990.0832 120.028406,4020.88973 C156.11055,4047.40925 200.902876,4061.03219 245.558114,4060.81631 C651.598371,4060.73504 1057.63609,4060.95092 1463.64842,4060.73504 C1562.10319,3791.84711 1660.45134,3522.93378 1759.12444,3254.15505 C2738.82838,3254.18299 3718.53232,3254.20838 4698.20834,3254.15505 C4706.51487,3261.35763 4708.75144,3272.36468 4712.5823,3282.21109 C4807.64033,3541.7377 4902.72628,3801.26177 4997.75639,4060.78838 C5412.72261,4060.84171 5827.6863,4060.78838 6242.65253,4060.81631 C6273.7995,4061.49187 6305.40342,4057.4182 6334.31128,4045.41305 C6398.41274,4020.00083 6447.73406,3960.86398 6460.89454,3893.15056 C6466.69286,3865.52627 6465.04526,3837.19849 6465.33014,3809.22372 C6465.26359,2620.3964 6465.33014,1431.57161 6465.26359,242.744288 C6465.21028,183.528701 6439.13304,124.798196 6394.34071,85.923046 C6357.37003,53.0644397 6308.42444,34.2605194 6258.99396,33.6941668 C4251.80066,33.7475005 2244.57943,33.6941668 237.38613,33.6941668 C170.806921,34.8268719 106.223109,70.3039064 69.3311289,125.715027 M1785.9582,3288.28351 C1692.11366,3545.94852 1597.51513,3803.31384 1503.21108,4060.79092 C2655.96105,4060.81885 3808.73895,4060.87219 4961.51431,4060.76298 C4867.37274,3803.07257 4772.93668,3545.46089 4678.47016,3287.87969 C3852.42188,3287.93303 3026.40405,3287.87969 2200.35577,3287.90763 C2062.23171,3288.1489 1924.08226,3287.39461 1785.9582,3288.28351 Z" id="SvgjsPath1053" stroke="#000000" fill="#000000"></path>
            <path d="M69.7201188,125.993597 C106.616862,70.5988934 171.215998,35.1323695 237.810926,34 C2245.40156,34 4253.02012,34.0558568 6260.61075,34 C6310.05102,34.5661848 6359.00376,53.3645342 6395.9843,86.2134057 C6440.78549,125.077038 6466.86789,183.790143 6466.92121,242.988187 C6466.98723,1431.4633 6466.92121,2619.93588 6466.98723,3808.411 C6466.70285,3836.37748 6468.34823,3864.69687 6462.5513,3892.31298 C6449.38822,3960.00633 6400.05713,4019.12567 6335.94298,4044.53035 C6307.0294,4056.53195 6275.41668,4060.60441 6244.26609,4059.92906 C5829.21772,4059.90113 5414.17189,4059.95698 4999.12351,4059.90113 C4904.0746,3800.45141 4808.96982,3541.00422 4713.89297,3281.5545 C4710.0639,3271.71101 4707.82435,3260.70723 4699.51617,3253.50678 C3719.64622,3253.5601 2739.74835,3253.53471 1759.85047,3253.50678 C1661.16038,3522.20588 1562.79276,3791.03954 1464.31596,4059.84781 C1058.22326,4060.06362 652.102623,4059.84781 245.984528,4059.92906 C201.317911,4060.14487 156.516718,4046.52596 120.429971,4020.0143 C77.599177,3989.21436 47.2814345,3941.50504 37.7062078,3889.61662 C32.3383931,3862.91707 34.5246222,3835.59548 34.0929626,3808.57349 C34.0650317,2621.87818 34.1208935,1435.21079 34.0650317,248.518009 C32.9833434,205.312781 45.4176805,161.782567 69.7201188,125.993597 M376.47524,387.492246 C353.602357,393.507007 333.428617,408.933638 321.667161,429.430541 C312.551525,444.750536 309.098247,462.711034 309.198993,480.377014 C309.198993,1317.30218 309.198993,2154.25273 309.198993,2991.17535 C309.016994,3010.05495 313.305659,3029.22906 323.741666,3045.16856 C338.925929,3068.92801 365.818325,3085.16456 394.137738,3086.32486 C2286.63775,3086.32486 4179.16569,3086.29693 6071.66571,3086.35279 C6108.61831,3085.57079 6142.63055,3058.68083 6153.31032,3023.53929 C6159.43227,3005.25381 6156.92611,2985.83595 6157.43648,2966.98429 C6157.41109,2135.37313 6157.46441,1303.76198 6157.41109,472.150831 C6157.22319,426.5463 6117.35815,385.687057 6071.71903,384.661323 C4180.08234,384.580076 2288.41771,384.689251 396.781018,384.608005 C389.907473,384.608005 383.082172,385.793692 376.47524,387.492246 Z" id="SvgjsPath1052" stroke="#D7D1BC" fill="#D7D1BC"></path>
            <path d="M377.273179,384.88919 C383.879734,383.189218 390.704646,382.027952 397.582878,382 C2289.11181,382.081314 4180.66866,381.972048 6072.19759,382.053362 C6117.83157,383.079952 6157.69434,423.973302 6157.88477,469.615901 C6157.93809,1301.92122 6157.88477,2134.22654 6157.91016,2966.53186 C6157.39727,2985.39926 6159.90583,3004.83332 6153.78423,3023.13407 C6143.10507,3058.30494 6109.09477,3085.21735 6072.14427,3086 C4179.75207,3085.94664 2287.33195,3085.97205 394.939748,3085.97205 C366.61941,3084.81078 339.731085,3068.56322 324.547687,3044.78139 C314.109736,3028.82859 309.821314,3009.63847 310.005685,2990.74312 C310.005685,2153.11935 310.005685,1315.47017 310.005685,477.84895 C309.905102,460.168223 313.358183,442.192734 322.4733,426.859951 C334.226468,406.348479 354.401599,390.908972 377.273179,384.88919 M345.906005,458.254802 C342.452925,472.588946 344.098216,487.433844 343.72244,502.00939 C343.72244,805.26764 343.72244,1108.52335 343.72244,1411.7816 L341.05138,1411.7816 C341.023451,1465.9825 340.958282,1520.20882 341.05138,1574.40972 C341.213878,1628.85203 340.566426,1683.29687 341.373837,1737.71377 L343.719901,1737.71377 C343.719901,2155.41902 343.691971,2573.14968 343.74783,2990.85493 C342.399605,3015.79547 357.692181,3041.08669 381.749488,3049.10374 C391.108352,3053.0983 401.355876,3052.23434 411.283483,3052.23434 C2292.88734,3052.23434 4174.46581,3052.23434 6056.06967,3052.23434 C6065.07815,3052.07171 6074.40909,3053.12371 6083.17636,3050.1837 C6106.58621,3043.62521 6124.25278,3020.7353 6124.22485,2996.30805 C6124.19692,2573.60961 6124.17153,2150.88576 6124.22485,1728.15936 C6125.00687,1727.45803 6126.54552,1726.08077 6127.29961,1725.40739 C6127.325,1671.93577 6128.2162,1618.38284 6126.84005,1564.96458 L6127.60672,1564.96458 C6127.51543,1510.73827 6127.60672,1456.53737 6127.54336,1402.33646 C6126.70802,1402.33646 6125.0348,1402.33646 6124.19946,1402.33646 C6124.22739,1092.38505 6124.17407,782.433635 6124.22739,472.482221 C6124.33403,449.808304 6109.47309,428.054251 6088.46515,419.765299 C6073.90128,413.529527 6057.79875,416.390766 6042.50618,415.770746 C4161.79098,415.742794 2281.05039,415.798698 400.335186,415.742794 C375.330821,415.417538 351.946357,434.122313 345.906005,458.254802 Z" id="SvgjsPath1051" stroke="#000000" fill="#000000"></path>
            <path d="M346.255505,460.5671 C352.295255,436.464898 375.67739,417.779093 400.676726,418.103975 C2281.2046,418.157276 4161.75786,418.103975 6042.28574,418.131895 C6057.57679,418.751202 6073.67772,415.893253 6088.24014,422.121855 C6109.24852,430.398738 6124.10798,452.130314 6123.99941,474.778159 C6123.99941,784.373168 6123.99941,1093.96818 6123.99941,1403.56319 C5752.02992,1403.56319 5380.08895,1403.56319 5008.17338,1403.56319 C5007.98551,1385.68705 5009.95306,1366.95048 5002.24025,1350.20635 C4990.64312,1322.43654 4961.46496,1303.34717 4931.36776,1303.80657 C3805.94321,1303.83449 2680.49073,1303.80657 1555.06364,1303.80657 C1542.30883,1303.85987 1529.28236,1302.9436 1516.84997,1306.39548 C1492.90169,1312.7053 1472.64987,1331.38857 1464.34299,1354.68364 C1457.54668,1373.3669 1460.48659,1393.5629 1459.86713,1413 C1087.92616,1413 716.010584,1413 344.069618,1413 C344.069618,1110.09046 344.069618,807.183455 344.069618,504.273914 C344.447896,489.71259 342.802769,474.882223 346.255505,460.5671 M504.477157,583.347205 C504.611712,716.104749 504.477157,848.859755 504.558398,981.617299 C637.349122,981.617299 770.165233,981.645219 902.981345,981.617299 C902.981345,848.834374 903.009271,716.04891 902.953418,583.265985 C770.137307,583.321824 637.321195,583.159383 504.477157,583.347205 M1017.5665,581.271005 L1017.5665,586.608718 C2650.25898,586.662019 4282.94892,586.636638 5915.64139,586.608718 L5915.64139,581.271005 C4282.95146,581.245623 2650.2869,581.245623 1017.5665,581.271005 M1008.9372,785.502642 C2644.48834,785.421421 4280.06487,785.502642 5915.64139,785.474722 C5915.64139,784.126969 5915.64139,781.431461 5915.64139,780.083708 C4283.19264,780.055788 2650.74388,780.164928 1018.2672,780.030407 C1014.65452,780.568493 1005.2712,777.979587 1008.9372,785.502642 M999.850915,983.533597 C2638.44859,983.777258 4277.04626,983.586898 5915.64393,983.642737 C5915.64393,982.294983 5915.64393,979.599476 5915.64393,978.251722 C4277.18082,978.198421 2638.74562,978.332943 1000.28251,978.198421 C1000.17334,979.541098 999.957543,982.211224 999.850915,983.533597 M991.300314,1177.11265 L991.300314,1182.45036 C2632.75665,1182.47828 4274.18506,1182.47828 5915.64393,1182.45036 L5915.64393,1177.11265 C4274.1876,1177.08727 2632.75665,1177.08727 991.300314,1177.11265 Z" id="SvgjsPath1050" stroke="#FFFFFF" fill="#FFFFFF"></path>
            <path d="M989,1175.02725 C2631.3418,1174.99092 4273.65566,1174.99092 5916,1175.02725 L5916,1181.97275 C4273.6582,1182.00908 2631.3418,1182.00908 989,1181.97275 L989,1175.02725 Z" id="SvgjsPath1049" stroke="#000000" fill="#000000"></path>
            <path d="M1516.09278,1306.6586 C1528.52336,1303.20997 1541.54792,1304.12538 1554.30087,1304.07213 C2679.56091,1304.07213 3804.84889,1304.10002 4930.11147,1304.07213 C4960.20427,1303.61316 4989.37817,1322.68457 5000.97361,1350.42827 C5008.68529,1367.15411 5006.71802,1385.8756 5006.90586,1403.73492 C5006.87794,1457.84794 5006.90586,1511.9356 5006.87794,1566.05116 C5006.76879,1620.35436 5006.79671,1674.65756 5006.87794,1728.98612 C5006.87794,1936.12184 5006.95917,2143.28544 5006.85002,2350.44905 C5005.36759,2389.74819 4969.18262,2422.66483 4930.08355,2421.88382 C3808.40773,2421.93707 2686.76237,2421.88382 1565.08655,2421.91171 C1546.26681,2421.53388 1526.71601,2423.87692 1508.75933,2416.90106 C1479.55751,2406.12663 1458.74004,2376.33658 1459.14619,2345.17214 C1459.09288,2142.91015 1459.11826,1940.67605 1459.11826,1738.4166 C1459.11826,1684.08804 1459.09034,1629.75694 1459.11826,1575.42838 C1459.11826,1521.34072 1459.11826,1467.25306 1459.11826,1413.16793 C1459.73764,1393.74658 1456.79816,1373.57211 1463.59347,1354.90642 C1471.89914,1331.62818 1492.148,1312.96249 1516.09278,1306.6586 M1533.29556,1338.5229 C1511.61757,1339.62595 1493.1989,1359.37188 1493.48985,1381.05513 C1493.48985,1702.34548 1493.48985,2023.63583 1493.48985,2344.92618 C1493.22682,2368.35909 1514.58243,2388.61724 1537.93323,2387.5649 C2667.80556,2387.5649 3797.64997,2387.53701 4927.5223,2387.5649 C4945.1033,2388.18363 4962.7376,2377.65264 4969.42376,2361.22094 C4973.6299,2351.90204 4972.38862,2341.55869 4972.5257,2331.69968 C4972.5257,2019.2439 4972.5257,1706.78812 4972.5257,1394.33234 C4972.68815,1382.10239 4973.2796,1368.71614 4965.99945,1358.15725 C4957.39934,1344.33992 4940.6814,1337.44267 4924.77067,1338.38597 C3794.27896,1338.5229 2663.78726,1338.25411 1533.29556,1338.5229 Z" id="SvgjsPath1048" stroke="#000000" fill="#000000"></path>
            <path d="M1532.83052,1337.22028 C2663.93255,1336.9508 3795.03457,1337.22028 4926.13659,1337.08554 C4942.05337,1336.13981 4958.78034,1343.05479 4967.38764,1356.90763 C4974.67172,1367.49366 4974.07995,1380.91431 4973.9174,1393.17569 C4973.9174,1706.43447 4973.9174,2019.69325 4973.9174,2332.95203 C4973.7828,2342.83638 4975.02475,2353.20631 4970.8138,2362.54916 C4964.12403,2379.02309 4946.4802,2389.58114 4928.88971,2388.96083 C3798.40739,2388.93286 2667.95301,2388.96083 1537.4707,2388.96083 C1514.10729,2390.01333 1492.74016,2369.70566 1493.00239,2346.21252 C1493.00239,2024.09646 1493.00239,1701.98041 1493.03731,1379.86435 C1492.71222,1358.12284 1511.1383,1338.32871 1532.83052,1337.22028 M1981.45659,1468.22102 C1906.80749,1475.43091 1834.28926,1504.05689 1775.17851,1550.28811 C1701.60881,1607.51212 1648.38018,1690.79441 1628.79343,1782.12554 C1608.31775,1875.29219 1621.94111,1975.75262 1667.72312,2059.57642 C1704.27812,2127.14238 1760.55702,2183.88081 1827.84077,2220.93189 C1892.8311,2256.95589 1968.10245,2274.0247 2042.26645,2269.97232 C2107.39139,2266.84024 2171.62741,2247.20627 2227.47455,2213.50591 C2318.36552,2159.44195 2386.21564,2068.05744 2411.25275,1965.19456 C2429.57216,1891.44324 2426.44062,1812.48027 2402.18829,1740.4577 C2375.5054,1660.33291 2322.60187,1589.41876 2253.99489,1540.3224 C2175.83582,1484.29072 2077.01313,1458.49937 1981.45659,1468.22102 M4412.14177,1468.1956 C4382.27654,1471.13955 4352.68053,1477.26897 4324.27313,1486.90926 C4234.43363,1516.1276 4156.84347,1579.34882 4107.98579,1660.038 C4055.45814,1745.72529 4037.62637,1851.5855 4058.12999,1949.91042 C4078.25517,2049.64122 4138.41739,2140.24271 4221.8084,2198.24974 C4304.06667,2256.33811 4408.66228,2281.10239 4508.23928,2266.5733 C4614.69654,2252.12557 4713.57257,2191.98558 4776.43203,2104.94835 C4837.32316,2022.36772 4863.81557,1915.74991 4849.73251,1814.15817 C4836.51297,1712.21305 4781.5573,1616.88547 4701.24195,1553.09986 C4620.792,1488.50327 4514.6319,1457.69093 4412.14177,1468.1956 M2545.17261,1491.70938 C2545.17261,1739.273 2545.17261,1986.80133 2545.17261,2234.36208 C2982.4662,2234.36208 3419.73692,2234.38305 3857.00511,2234.32712 C3857.00511,1986.79879 3857.00511,1739.27046 3857.00511,1491.74212 C3419.73692,1491.68874 2982.46874,1491.70938 2545.17261,1491.70938 Z" id="SvgjsPath1047" stroke="#D8D3BC" fill="#D8D3BC"></path>
            <path d="M6124.60683,1403 C6125.44118,1403 6127.1124,1403 6127.94674,1403 C6128.0279,1456.98228 6127.91885,1510.96457 6128,1564.97216 L6127.24427,1564.97216 C5754.84811,1565 5382.42406,1564.94432 5010,1565 C5010.0279,1510.99241 5010,1457.01012 5010.0279,1403 C5381.53646,1403 5753.07291,1403 6124.60683,1403 Z" id="SvgjsPath1046" stroke="#E91D24" fill="#E91D24"></path>
            <path d="M4410.03572,1470.01515 C4512.44968,1459.5296 4618.53344,1490.28586 4698.92361,1554.76487 C4779.17926,1618.43438 4834.0941,1713.58845 4847.30381,1815.34801 C4861.37641,1916.75483 4834.90369,2023.17858 4774.0578,2105.6089 C4711.24506,2192.48771 4612.44251,2252.51823 4506.06436,2266.93967 C4406.56135,2281.44231 4302.04347,2256.72311 4219.84633,2198.74046 C4136.51728,2140.83902 4076.39977,2050.40243 4056.28954,1950.85317 C4035.80117,1852.70721 4053.61968,1747.03968 4106.1083,1661.50837 C4154.92967,1580.96352 4232.46217,1517.85991 4322.23492,1488.69475 C4350.61866,1479.072 4380.19268,1472.95374 4410.03572,1470.01515 M4424.83669,1503.30651 C4375.07122,1506.7298 4325.92501,1520.12602 4281.63377,1543.14754 C4199.62697,1584.87657 4135.14175,1659.13821 4104.05769,1745.6389 C4068.01459,1844.08176 4077.55705,1957.86214 4129.5051,2048.92045 C4180.32125,2139.76052 4271.09138,2207.28725 4373.12974,2228.47405 C4477.19079,2251.30524 4590.44155,2225.26646 4674.14873,2159.41204 C4754.00087,2097.92491 4806.73059,2002.39527 4815.08785,1901.84871 C4824.98054,1798.20368 4787.21168,1691.70126 4715.23462,1616.62758 C4641.77035,1537.99865 4532.07772,1495.51594 4424.83669,1503.30651 Z" id="SvgjsPath1045" stroke="#000000" fill="#000000"></path>
            <path d="M2545,1492.00385 C2981.68273,1492.00385 3418.34263,1491.98287 3855,1492.03883 C3855,1739.68006 3855,1987.3213 3855,2234.96254 C3418.34263,2235.01595 2981.68527,2234.99657 2545,2234.99657 C2545,1987.3213 2545,1739.68006 2545,1492.00385 M2578.7572,1524.88979 C2578.65963,1751.18655 2578.59488,1977.51129 2578.7851,2203.83602 C2665.85889,2204.04616 2752.93015,2203.864 2840.00394,2203.91741 C2865.67818,2203.43162 2891.48684,2204.91698 2917.13572,2203.16201 L2917.78246,2200.56771 C3005.79719,2200.5143 3093.81446,2200.53974 3181.85709,2200.53974 L3182.31615,2203.35023 C3240.53527,2204.70079 3298.83555,2203.51301 3357.10793,2203.94539 C3513.39286,2203.83602 3669.67526,2204.04616 3825.96019,2203.81059 C3826.09461,1977.51383 3826.09461,1751.18909 3825.96019,1524.86436 C3619.40467,1523.97416 3412.7959,1524.83638 3206.24039,1524.43197 C3202.00996,1525.10853 3196.51395,1522.91863 3193.36396,1526.48452 C3095.48837,1526.45655 2997.58488,1526.40313 2899.70929,1526.5125 L2899.00929,1524.59475 C2792.26451,1524.62019 2685.49691,1524.053 2578.7572,1524.88979 Z" id="SvgjsPath1044" stroke="#000000" fill="#000000"></path>
            <path d="M4428.279,1502.91188 C4535.49642,1495.12344 4645.1649,1537.59451 4718.61299,1616.20441 C4790.57675,1691.25498 4828.33729,1797.73074 4818.44424,1901.34735 C4810.08881,2001.86635 4757.37071,2097.3698 4677.53616,2158.84008 C4593.8474,2224.67645 4480.62158,2250.70809 4376.58344,2227.88315 C4274.56754,2206.70217 4183.81994,2139.19649 4133.01244,2048.37878 C4081.07583,1957.34797 4071.53293,1843.59624 4107.57063,1745.18037 C4138.64785,1658.70339 4203.11633,1584.45957 4285.10761,1542.74451 C4329.3891,1519.72677 4378.52449,1506.33422 4428.279,1502.91188 M4413.10323,1522.96138 C4302.51624,1534.68463 4200.34049,1603.64398 4147.46,1701.35965 C4113.50037,1762.55848 4099.40296,1834.24251 4106.35779,1903.82342 C4114.71321,1993.80393 4160.45113,2079.39298 4230.15158,2136.84727 C4310.01151,2204.40623 4421.46119,2231.81289 4523.69276,2210.06616 C4622.17669,2190.44793 4709.98861,2125.12403 4758.09892,2037.13756 C4807.66566,1948.42298 4814.83362,1837.58367 4777.77338,1743.02143 C4759.84968,1696.77792 4731.95427,1654.36013 4696.24135,1619.89314 C4622.95565,1546.9457 4515.68495,1510.6445 4413.10323,1522.96138 Z" id="SvgjsPath1043" stroke="#FFFFFF" fill="#FFFFFF"></path>
            <path d="M4413.22104,1519.37194 C4515.71891,1507.0185 4622.90194,1543.43239 4696.12774,1616.61392 C4731.81147,1651.19032 4759.68408,1693.74275 4777.59313,1740.13305 C4814.62308,1834.99545 4807.45845,1946.18658 4757.93475,2035.18275 C4709.86376,2123.44851 4622.12361,2188.97977 4523.72018,2208.66027 C4421.57217,2230.47602 4310.21611,2202.98237 4230.41892,2135.20897 C4160.77797,2077.57231 4115.07491,1991.71158 4106.72631,1901.44545 C4099.77971,1831.64368 4113.86305,1759.73211 4147.79492,1698.33902 C4200.6322,1600.31064 4302.72443,1531.12985 4413.22104,1519.37194 M4206.66357,1683.2777 C4231.14401,1698.33648 4256.34952,1712.1762 4281.07334,1726.88377 C4269.62666,1746.99692 4258.18251,1767.11007 4246.49498,1787.08833 C4221.58356,1772.40876 4196.48452,1758.02695 4171.54774,1743.42882 C4137.93785,1820.88087 4137.697,1912.25662 4171.81648,1989.57378 C4196.86227,1975.13852 4221.6368,1960.16119 4246.92598,1946.1026 C4257.99491,1966.37863 4270.06019,1986.05913 4281.26349,2006.25372 C4256.40783,2020.77041 4231.22767,2034.77555 4206.63822,2049.80634 C4255.16556,2116.25634 4331.32719,2161.24179 4412.79004,2171.45997 C4412.9523,2144.61529 4412.81793,2117.79861 4412.84328,2090.97938 C4437.75471,2090.84449 4462.6636,2090.92593 4487.57503,2090.95138 C4487.62827,2118.01239 4487.54714,2145.10139 4487.60292,2172.18784 C4571.24863,2163.4025 4649.77819,2117.55174 4699.49203,2049.58747 C4674.60849,2034.98933 4649.61593,2020.63298 4624.67915,2006.16973 C4636.15119,1986.08458 4647.67646,1965.99688 4659.2854,1945.99316 C4684.33119,1960.37497 4709.18685,1975.13598 4734.42025,1989.22002 C4768.24564,1911.84942 4767.89577,1820.87832 4734.44814,1743.45427 C4709.26797,1757.78263 4684.38443,1772.65054 4659.17638,1786.9509 C4647.70435,1766.91919 4636.07006,1746.96638 4624.76028,1726.88122 C4649.61593,1712.25509 4674.74286,1698.06162 4699.57315,1683.3566 C4649.64382,1615.5552 4571.3044,1569.679 4487.63081,1560.83766 C4487.52433,1587.92666 4487.65869,1615.04111 4487.57757,1642.13011 C4462.66614,1642.13011 4437.75725,1642.23955 4412.84582,1642.10212 C4412.81793,1615.22944 4412.92695,1588.38476 4412.79258,1561.51463 C4331.35254,1571.89824 4255.19345,1616.8277 4206.66357,1683.2777 Z" id="SvgjsPath1042" stroke="#ACA491" fill="#ACA491"></path>
            <path d="M2900,1528.06505 C2998.32399,1527.9557 3096.67601,1528.01165 3195,1528.03707 C3146.66223,1748.99898 3143.30672,1979.44365 3183.44296,2201.97203 C3094.99698,2201.97203 3006.57902,2201.94405 2918.15851,2202 C2977.99726,1982.06546 2972.99074,1744.27413 2900,1528.06505 Z" id="SvgjsPath1041" stroke="#FFFFFF" fill-opacity="0.53" fill="#FFFFFF"></path>
            <path d="M3193.14666,1526.11551 C3196.30994,1522.54252 3201.82468,1524.73423 3206.06698,1524.05887 C3413.32645,1524.46409 3620.63937,1523.5976 3827.89884,1524.49212 C3828.03372,1751.26787 3828.03372,1978.04363 3827.89884,2204.79135 C3671.08128,2205.036 3514.26626,2204.81938 3357.4487,2204.92642 C3298.97771,2204.49317 3240.47874,2205.68332 3182.0612,2204.33007 L3181.60058,2201.51398 C3141.51375,1978.50236 3144.86535,1747.55981 3193.14666,1526.11551 Z" id="SvgjsPath1040" stroke="#222222" fill="#222222"></path>
            <path d="M4206.34615,1682.96682 C4254.8435,1616.77227 4330.95806,1572.01552 4412.34523,1561.67437 C4412.47951,1588.44374 4412.3731,1615.18522 4412.39843,1641.95206 C4437.29447,1642.08642 4462.18796,1641.97994 4487.084,1641.97994 C4487.16507,1614.99508 4487.03079,1587.98486 4487.1372,1561 C4570.75909,1569.80735 4649.05009,1615.50719 4698.94857,1683.04794 C4674.13361,1697.69897 4649.02475,1711.83535 4624.18193,1726.40525 C4635.48472,1746.41319 4647.11182,1766.2893 4658.57676,1786.24401 C4683.76923,1771.99861 4708.6374,1757.18533 4733.802,1742.91459 C4767.22896,1820.04354 4767.57861,1910.66238 4733.77413,1987.73555 C4708.55632,1973.70565 4683.71349,1959.00139 4658.68571,1944.67487 C4647.08648,1964.60422 4635.56579,1984.61216 4624.10085,2004.6201 C4649.02222,2019.02775 4673.99933,2033.32638 4698.86749,2047.87093 C4649.18437,2115.57393 4570.70335,2161.24589 4487.10933,2170 C4487.05613,2143.01514 4487.1372,2116.03281 4487.08146,2089.07583 C4462.18543,2089.04794 4437.29193,2088.96682 4412.3959,2089.10372 C4412.36803,2115.81731 4412.50232,2142.53344 4412.34269,2169.27493 C4330.92765,2159.09603 4254.81562,2114.28351 4206.31828,2048.08896 C4230.89,2033.11596 4256.0546,2019.16719 4280.89742,2004.70377 C4269.70105,1984.58681 4257.64322,1964.98197 4246.58113,1944.78388 C4221.31012,1958.78843 4196.54837,1973.70565 4171.51805,1988.08795 C4137.41713,1911.06801 4137.66036,1820.04354 4171.24948,1742.88924 C4196.17085,1757.43125 4221.25438,1771.75777 4246.15041,1786.38091 C4257.83072,1766.47944 4269.27032,1746.44361 4280.7074,1726.40778 C4256.00393,1711.75676 4230.81145,1697.9677 4206.34615,1682.96682 M4220.15475,1680.11216 C4244.21467,1695.00403 4269.13857,1708.52435 4293.49493,1723.03848 C4278.8274,1748.38052 4264.3727,1773.82904 4249.59876,1799.11531 C4225.02704,1784.81414 4200.48066,1770.46227 4175.72144,1756.48561 C4148.29679,1825.83144 4148.32213,1905.46265 4175.8836,1974.75523 C4200.45532,1960.48195 4225.02704,1946.20867 4249.62663,1931.9354 C4264.37523,1957.22166 4279.07063,1982.53835 4293.63175,2007.95899 C4269.24752,2022.23227 4244.81009,2036.37118 4220.23837,2050.31995 C4264.78063,2107.89729 4331.95886,2146.97261 4403.65721,2158.63208 C4403.68508,2132.2937 4403.65721,2105.95785 4403.68508,2079.64482 C4434.39339,2079.61693 4465.12958,2079.61693 4495.86576,2079.64482 C4495.86576,2106.30518 4495.83789,2132.96553 4495.86576,2159.65377 C4569.82416,2149.15036 4638.6721,2109.05335 4684.99047,2050.5608 C4660.44409,2036.34076 4635.84703,2022.20438 4611.32852,2007.95645 C4626.04926,1982.69554 4640.50395,1957.24702 4655.22469,1931.9861 C4679.93069,1946.06924 4704.53028,1960.3704 4729.21095,1974.56256 C4756.66348,1905.21673 4757.14741,1825.45116 4728.8613,1756.29294 C4704.61136,1770.88819 4679.77107,1784.43386 4655.57434,1799.08489 C4640.23285,1774.12059 4626.31783,1748.29432 4611.32852,1723.11453 C4635.79383,1708.76013 4660.44662,1694.70234 4684.99047,1680.45695 C4638.64423,1621.88327 4569.77095,1581.94597 4495.81256,1571.25496 C4495.89363,1597.96855 4495.84043,1624.68468 4495.86576,1651.39828 C4465.12958,1651.42617 4434.39593,1651.42617 4403.68508,1651.39828 C4403.65721,1625.0599 4403.68508,1598.72405 4403.68508,1572.41102 C4331.81951,1583.78401 4265.55847,1623.45257 4220.15475,1680.11216 Z" id="SvgjsPath1039" stroke="#3A3A3C" fill="#3A3A3C"></path>
            <path d="M5010.07043,1566.02773 C5382.46769,1565.9748 5754.86494,1566.02773 6127.2343,1566 C6128.60871,1618.98571 6127.71864,1672.10501 6127.69328,1725.14365 C6126.94014,1725.8141 6125.40344,1727.17769 6124.62241,1727.87334 C5753.11523,1728.11531 5381.60551,1727.92627 5010.07297,1727.9792 C5010,1673.97773 5009.96393,1620.00147 5010.07043,1566.02773 Z" id="SvgjsPath1038" stroke="#301C0F" fill="#301C0F"></path>
            <path d="M5008.14601,1728.10679 C5380.11594,1728.0534 5752.05796,1728.24156 6124,1728 C6124,2150.99655 6124,2573.99056 6124,2996.95915 C6124,3021.40201 6106.36303,3044.30655 6082.95545,3050.86923 C6074.19156,3053.81366 6064.85899,3052.76099 6055.85139,3052.92118 C4174.42965,3052.92118 2293.0333,3052.92118 411.611563,3052.92118 C401.687456,3052.92118 391.438385,3053.78569 382.080428,3049.78858 C358.025449,3041.7664 342.734353,3016.45903 344.082447,2991.50254 C344,2573.53034 344,2155.53271 344,1737.56051 C715.996532,1737.56051 1087.93854,1737.56051 1459.85517,1737.56051 C1459.85517,1940.3755 1459.82724,2143.16253 1459.88309,2345.97498 C1459.47943,2377.22462 1480.29746,2407.09867 1509.50363,2417.90001 C1527.46552,2424.89495 1547.0167,2422.5455 1565.83924,2422.92436 C2687.67966,2422.89639 3809.49468,2422.95233 4931.33764,2422.89639 C4970.43999,2423.67954 5006.63289,2390.6729 5008.11554,2351.26632 C5008.22725,2143.53885 5008.14601,1935.80884 5008.14601,1728.10679 M5104.58426,1789.57883 C5104.58426,1815.66935 5104.58426,1841.75988 5104.58426,1867.85295 C5107.87452,1867.85295 5111.24602,1867.85295 5114.69623,1867.88092 C5114.66831,1847.54195 5114.72416,1827.17756 5114.66831,1806.8386 C5127.85475,1827.25893 5141.20621,1847.56992 5154.55514,1867.90634 C5158.0612,1867.85295 5161.62058,1867.85295 5165.28912,1867.85295 C5165.23581,1841.76242 5165.23581,1815.66935 5165.28912,1789.57883 C5161.83637,1789.55086 5158.46487,1789.52543 5155.14922,1789.55086 C5155.14922,1809.88982 5155.0959,1830.25421 5155.17714,1850.59318 C5141.96277,1830.17285 5128.64177,1809.83643 5115.29031,1789.52543 C5111.64969,1789.52543 5108.09032,1789.5534 5104.58426,1789.57883 M5242.09241,1789.57883 C5242.0391,1792.92755 5242.06703,1796.27627 5242.14573,1799.68093 C5245.19227,1799.65296 5248.34798,1799.65296 5251.53161,1799.68093 C5251.4783,1796.27881 5251.50369,1792.92755 5251.58493,1789.57883 C5248.35052,1789.5534 5245.19481,1789.5534 5242.09241,1789.57883 M1095.791,1796.3856 C1095.76308,1800.38271 1095.791,1804.40779 1095.791,1808.45829 C1099.61949,1808.43032 1103.45051,1808.43032 1107.30693,1808.45829 C1107.22569,1804.32642 1107.14444,1800.21998 1107.0632,1796.16948 C1103.28803,1796.22287 1099.54079,1796.27881 1095.791,1796.3856 M555.083325,1889.46071 C559.127607,1889.43274 563.174429,1889.43274 567.218712,1889.48868 C567.246639,1865.98916 567.137471,1842.49217 567.299953,1818.99519 C568.863844,1820.1572 570.186551,1821.58873 571.237607,1823.26182 C585.530961,1845.38321 599.824315,1867.50206 614.38678,1889.43529 C618.64686,1889.43529 622.934866,1889.46325 627.222872,1889.51665 C627.222872,1858.42974 627.222872,1827.36826 627.222872,1796.30678 C623.178589,1796.30678 619.131767,1796.30678 615.087484,1796.30678 C615.115411,1820.37333 615.03417,1844.43733 615.140799,1868.5293 C599.311481,1844.49073 583.804588,1820.23602 567.838175,1796.30678 C563.578096,1796.27881 559.343404,1796.27881 555.108712,1796.27881 C555.03001,1827.33775 555.111251,1858.39923 555.083325,1889.46071 M943.423342,1889.46071 C947.22644,1889.46071 951.054926,1889.46071 954.885952,1889.48868 C954.885952,1858.4272 954.885952,1827.36572 954.885952,1796.33221 C952.027281,1796.30424 946.309939,1796.27881 943.479195,1796.27881 C943.367489,1827.33775 943.476656,1858.39923 943.423342,1889.46071 M1009.49266,1796.33221 C1009.49266,1827.36572 1009.49266,1858.4272 1009.49266,1889.48868 C1026.698,1888.7869 1044.20037,1891.13634 1061.18992,1887.81305 C1076.37184,1885.13814 1085.00371,1866.96046 1079.31176,1853.07993 C1076.58764,1846.32655 1070.33208,1841.95312 1063.72362,1839.60114 C1069.27848,1836.03629 1074.48299,1831.17467 1075.77777,1824.42129 C1078.88016,1811.67225 1068.46861,1798.73505 1055.87624,1797.14078 C1040.50644,1795.33293 1024.94623,1796.73649 1009.49266,1796.33221 M5193.44423,1811.83498 C5176.12973,1819.50627 5174.10886,1843.81437 5182.95398,1858.58739 C5193.01264,1873.98337 5218.90316,1872.33571 5227.39793,1856.15658 C5233.16859,1842.59897 5232.41457,1823.5288 5219.52262,1814.26579 C5212.02306,1808.97191 5201.77652,1808.43286 5193.44423,1811.83498 M5242.12034,1811.15862 C5242.12034,1830.06605 5242.12034,1848.97094 5242.12034,1867.8504 C5245.19481,1867.8504 5248.35052,1867.8504 5251.55954,1867.87837 C5251.53415,1848.97094 5251.53415,1830.06605 5251.55954,1811.18659 C5248.35052,1811.15862 5245.19481,1811.15862 5242.12034,1811.15862 M5264.31439,1827.58185 C5265.12426,1839.41298 5278.31071,1841.41153 5287.42748,1844.05847 C5292.30956,1845.65273 5301.66498,1846.7588 5299.99446,1854.10717 C5294.68078,1865.91033 5273.7282,1862.61501 5271.86727,1849.67781 C5269.60268,1850.00073 5265.09887,1850.70506 5262.83174,1851.02798 C5264.82722,1868.93613 5287.56203,1873.79775 5301.07344,1865.6942 C5308.92082,1861.453 5312.4802,1850.0287 5306.89741,1842.62948 C5298.5372,1832.58077 5282.30167,1836.41769 5273.78152,1827.07077 C5273.5124,1813.8081 5296.35384,1815.13285 5298.05229,1827.36826 C5301.04552,1826.88261 5304.11998,1826.39695 5307.22238,1825.90876 C5304.73945,1803.59667 5263.34457,1804.05689 5264.31439,1827.58185 M5322.8359,1819.39693 C5315.42011,1830.14742 5314.85142,1845.2459 5320.84042,1856.75157 C5330.73913,1875.38693 5364.12414,1873.11885 5369.32865,1851.78061 C5367.11737,1851.42972 5362.69481,1850.72794 5360.4556,1850.37705 C5356.92161,1858.85691 5347.05336,1863.50241 5338.39611,1860.26302 C5330.41417,1858.12971 5327.09598,1849.67527 5325.88244,1842.32944 C5340.49822,1842.05992 5355.11654,1842.30147 5369.75771,1842.16671 C5369.51652,1833.38935 5368.49085,1823.61017 5361.80116,1817.18225 C5351.55716,1806.32497 5331.76226,1807.54038 5322.8359,1819.39693 M662.765848,1822.80159 C643.565025,1830.20336 640.571798,1855.32004 646.827362,1872.49844 C653.192093,1891.67539 680.293613,1896.61838 694.802763,1883.81594 C706.696966,1873.41635 707.341817,1855.348 703.378776,1841.11404 C698.902899,1824.25855 678.272741,1816.04821 662.765848,1822.80159 M719.588911,1821.99048 C719.588911,1844.48818 719.588911,1866.98843 719.588911,1889.48614 C723.39201,1889.43274 727.220496,1889.43274 731.076909,1889.45817 C731.968022,1872.76542 728.837702,1855.58956 733.260263,1839.32907 C735.580712,1831.14415 745.179854,1829.3897 751.651215,1833.95382 C752.864753,1830.47034 754.106219,1827.01229 755.345145,1823.55423 C749.790286,1821.58365 743.56011,1818.93671 737.814842,1821.90657 C734.471263,1824.20261 732.150815,1827.6327 729.617108,1830.76529 C729.645035,1828.55061 729.698349,1824.14668 729.726276,1821.95996 C726.329383,1821.93708 722.957878,1821.96251 719.588911,1821.99048 M762.735546,1821.99048 C762.735546,1844.46276 762.735546,1866.96046 762.735546,1889.46071 C766.538644,1889.46071 770.341742,1889.46071 774.170229,1889.51411 C774.708451,1874.22747 773.119172,1858.80352 775.005489,1843.65164 C776.328195,1832.44347 790.349899,1827.33775 799.385431,1833.19865 C805.696848,1851.1602 801.137192,1870.82281 802.513213,1889.48614 C806.316312,1889.45817 810.144798,1889.45817 813.975823,1889.48614 C814.244934,1874.28086 813.409674,1859.01965 814.37949,1843.86777 C815.02688,1830.55171 837.599208,1824.71878 841.455621,1839.03412 C843.31655,1855.75229 841.805973,1872.68914 842.290881,1889.48868 C846.093979,1889.46071 849.922466,1889.46071 853.753491,1889.48868 C852.918231,1870.66262 855.561105,1851.48566 852.108359,1832.93166 C846.309776,1815.45577 820.421796,1817.80521 811.952412,1832.01375 C805.750163,1815.91599 782.665,1818.15864 773.954432,1830.85174 C774.035673,1828.60909 774.198155,1824.17973 774.25147,1821.96505 C770.395057,1821.96251 766.566571,1821.96251 762.735546,1821.99048 M869.044587,1841.35559 C872.766444,1841.86921 876.513689,1842.40826 880.263473,1842.94986 C882.743865,1829.20154 899.977131,1826.63597 910.144961,1833.41477 C913.866818,1836.81689 913.678948,1842.2201 913.973447,1846.91899 C901.37854,1851.67382 886.628205,1848.91755 875.140207,1856.7236 C865.028231,1863.96263 865.485212,1881.41056 876.488302,1887.59438 C888.839486,1894.34776 904.237211,1890.29471 914.270485,1881.16646 C914.458355,1889.80906 921.955384,1890.59221 928.914191,1889.59293 C922.496145,1871.60595 928.401357,1852.10353 924.788667,1833.70973 C921.335921,1821.04205 905.453288,1819.80122 894.584754,1820.8005 C882.528069,1821.15393 871.012144,1828.90405 869.044587,1841.35559 M1095.791,1821.96251 C1095.791,1844.46276 1095.791,1866.96046 1095.791,1889.48614 C1099.5941,1889.45817 1103.42259,1889.45817 1107.25361,1889.48614 C1107.25361,1866.98843 1107.25361,1844.46021 1107.25361,1821.96251 C1103.42259,1821.93708 1099.5941,1821.93708 1095.791,1821.96251 M1122.54471,1841.35559 C1126.26657,1841.86921 1130.01381,1842.40826 1133.76359,1842.94986 C1136.27191,1829.22951 1153.47725,1826.66394 1163.64508,1833.41477 C1167.33901,1836.81689 1167.20446,1842.2201 1167.47357,1846.91899 C1154.93451,1851.64585 1140.29081,1848.94552 1128.8282,1856.58884 C1118.50043,1863.77447 1118.93202,1881.49193 1130.09505,1887.65032 C1142.44624,1894.32233 1157.76526,1890.26929 1167.74268,1881.16901 C1167.9864,1889.8116 1175.40219,1890.65069 1182.38639,1889.59547 C1176.07497,1871.68732 1181.76692,1852.32221 1178.36749,1834.00976 C1174.59232,1820.15465 1156.92746,1819.50627 1145.25159,1821.17936 C1134.05809,1822.04387 1124.45895,1830.11945 1122.54471,1841.35559 M1205.74066,1823.25928 C1195.95111,1826.74276 1190.93447,1839.38501 1196.32939,1848.48529 C1201.61514,1856.7236 1212.07746,1858.02037 1220.70933,1860.61137 C1227.23654,1862.55653 1235.51552,1863.07015 1238.26502,1870.52277 C1233.81453,1887.32231 1205.6061,1884.16175 1203.85434,1867.12065 C1200.05124,1867.63428 1196.27607,1868.17333 1192.52883,1868.74034 C1194.60555,1876.97865 1199.02812,1885.43309 1207.44165,1888.61908 C1218.79509,1892.34666 1232.54768,1892.0212 1242.20268,1884.24312 C1249.16148,1878.13812 1251.47939,1866.41633 1245.4117,1858.90777 C1235.056,1847.34871 1215.4769,1852.0476 1205.58072,1840.56736 C1205.87775,1825.03662 1233.84246,1826.79361 1235.2718,1841.648 C1239.10028,1841.02758 1242.93131,1840.3792 1246.75979,1839.64945 C1243.6574,1821.10054 1220.57224,1816.75 1205.74066,1823.25928 M5104.58426,1919.87381 C5104.55633,1945.9923 5104.58426,1972.08283 5104.58426,1998.20132 C5107.87452,1998.17335 5111.24602,1998.17335 5114.69623,1998.20132 C5114.69623,1986.47953 5114.64292,1974.78316 5114.72416,1963.08934 C5122.81526,1963.68433 5133.00848,1960.63056 5139.23866,1967.60007 C5147.54556,1976.72832 5153.18166,1987.91106 5159.97798,1998.1759 C5162.97121,1998.20387 5168.95766,1998.22929 5171.95089,1998.22929 C5163.48404,1986.10321 5157.82002,1971.19289 5145.1718,1962.60369 C5152.75007,1960.84923 5161.48856,1958.01159 5164.69758,1950.09874 C5170.387,1938.53968 5163.42819,1922.06306 5149.97264,1920.6595 C5134.8948,1918.92793 5119.68494,1920.30606 5104.58426,1919.87381 M5447.07637,1919.87381 C5447.02306,1923.22253 5446.99513,1926.59922 5447.05098,1929.97591 C5450.15084,1929.94794 5453.30655,1929.97591 5456.51557,1930.00388 C5456.43433,1926.60176 5456.43433,1923.22507 5456.51557,1919.87635 C5453.30655,1919.84584 5450.15084,1919.84584 5447.07637,1919.87381 M5278.5265,1919.89923 C5278.50111,1929.10885 5278.36402,1938.37441 5278.71437,1947.612 C5269.43766,1936.15973 5249.56152,1938.34898 5243.03684,1951.52774 C5235.64644,1965.65491 5236.88791,1986.58632 5251.01878,1996.1214 C5259.8639,2002.30777 5272.51212,1999.98375 5278.98348,1991.42252 C5278.821,1993.12357 5278.52396,1996.50026 5278.36402,1998.1759 C5280.76571,1998.1759 5285.56401,1998.20387 5287.9657,1998.20387 C5287.9657,1972.08537 5287.93777,1945.99485 5287.9657,1919.87617 C5285.61986,1919.87381 5280.90027,1919.89923 5278.5265,1919.89923 M5418.06061,1927.62392 C5418.03268,1932.21602 5418.0073,1936.80811 5418.086,1941.4536 C5416.41548,1941.48157 5413.04397,1941.48157 5411.37091,1941.48157 C5411.34299,1943.31739 5411.34299,1946.96361 5411.34299,1948.80197 C5413.04143,1948.88334 5416.49418,1949.0715 5418.22055,1949.18083 C5418.40842,1963.38683 5417.11364,1977.78354 5418.86794,1991.93614 C5420.6197,2000.36261 5431.05918,1999.93035 5437.79966,1999.4447 C5437.55593,1996.4189 5437.36806,1993.42107 5437.23351,1990.45121 C5433.862,1989.85622 5429.00785,1991.0462 5427.68768,1986.99315 C5427.22816,1974.32548 5427.63436,1961.63238 5427.5252,1948.96471 C5430.62505,1948.88334 5433.80869,1948.82994 5437.04564,1948.77655 C5437.01771,1946.96615 5436.9644,1943.31994 5436.93901,1941.48412 C5433.72998,1941.45615 5430.6022,1941.45615 5427.52774,1941.48412 C5427.47442,1934.89347 5427.47442,1928.30282 5427.52774,1921.76811 C5424.31617,1923.68021 5421.16047,1925.65334 5418.06061,1927.62392 M5185.9472,1947.39587 C5176.80504,1957.33524 5175.94186,1973.05414 5180.95849,1985.15479 C5189.10291,2004.8708 5223.40696,2004.73603 5229.71838,1983.69529 C5227.66958,1983.01893 5223.56945,1981.66876 5221.49272,1980.99495 C5217.42051,1989.82825 5206.52659,1994.39238 5197.67893,1989.82825 C5190.61349,1987.12792 5188.37428,1979.21253 5187.02619,1972.59645 C5201.58865,1972.48712 5216.17904,1972.54305 5230.76944,1972.56848 C5230.55364,1964.65564 5230.04081,1956.06643 5224.8363,1949.69191 C5215.93532,1937.56329 5196.35622,1936.97084 5185.9472,1947.39587 M5302.1245,1941.507 C5302.23113,1954.98579 5301.88332,1968.46204 5302.23113,1981.94083 C5302.44693,1988.69421 5305.87174,1996.01207 5312.83055,1998.06656 C5322.02603,2002.19843 5332.57214,1998.20132 5338.58652,1990.58597 C5338.58652,1992.50316 5338.55859,1996.31211 5338.5332,1998.20132 C5340.87904,1998.20132 5345.59864,1998.20132 5347.94447,1998.20132 C5347.99779,1979.29389 5347.91655,1960.41443 5347.96986,1941.50954 C5344.76084,1941.45615 5341.63306,1941.45615 5338.55859,1941.45615 C5337.96451,1954.63744 5339.6655,1968.03487 5337.58877,1981.07886 C5335.62122,1993.74653 5312.80516,1995.69169 5311.80742,1981.56451 C5311.13211,1968.19506 5311.75411,1954.8256 5311.53831,1941.45615 C5308.32675,1941.4536 5305.17104,1941.4536 5302.1245,1941.507 M5367.41441,1992.79811 C5381.06037,2006.51846 5407.51704,1998.52424 5409.67501,1978.6989 C5407.32917,1978.32004 5402.66288,1977.59029 5400.34498,1977.2394 C5398.8344,1982.8562 5396.13821,1989.55618 5389.74555,1990.87838 C5380.90043,1993.90418 5371.19212,1987.58306 5369.70947,1978.58957 C5367.73937,1968.56883 5367.95771,1954.03737 5379.0395,1949.44527 C5387.07729,1945.23204 5397.13595,1950.87681 5398.69984,1959.62874 C5401.77431,1959.22445 5404.87417,1958.84559 5408.08573,1958.46673 C5406.17148,1945.01591 5391.52778,1936.88694 5378.85163,1940.85607 C5356.62711,1945.58547 5353.66181,1978.07849 5367.41441,1992.79811 M5447.07637,1941.48157 C5447.05098,1960.389 5447.07637,1979.29389 5447.07637,1998.20132 C5450.12291,1998.14793 5453.27862,1998.14793 5456.51557,1998.17335 C5456.49018,1979.26592 5456.51557,1960.38646 5456.51557,1941.48157 C5453.30655,1941.4536 5450.15084,1941.4536 5447.07637,1941.48157 M5484.80524,1941.58837 C5466.14264,1948.42311 5463.41852,1974.43227 5473.31724,1989.47736 C5483.83543,2004.81994 5510.47996,2002.19843 5517.89575,1985.12936 C5521.78009,1974.51364 5522.02128,1961.68578 5516.19731,1951.74641 C5509.96713,1941.20951 5495.94289,1937.53786 5484.80524,1941.58837 M5531.35385,1941.507 C5531.37923,1960.41443 5531.30053,1979.29389 5531.37923,1998.19878 C5533.72507,1998.19878 5538.44467,1998.19878 5540.79051,1998.19878 C5541.30334,1985.36838 5539.65821,1972.37778 5541.68162,1959.71011 C5543.73042,1948.22987 5563.472,1945.20661 5566.97806,1957.09114 C5568.78314,1970.64875 5567.22179,1984.5064 5567.76001,1998.19878 C5570.13377,1998.19878 5574.82544,1998.19878 5577.17128,1998.19878 C5576.92756,1983.58595 5577.65619,1968.94769 5576.84886,1954.36283 C5574.42178,1937.2124 5549.25989,1935.72493 5540.7118,1948.8808 C5540.7118,1947.01701 5540.76512,1943.28943 5540.76512,1941.4536 C5537.5561,1941.4536 5534.40039,1941.4536 5531.35385,1941.507 M5101.21275,2056.94505 C5101.21275,2109.39817 5101.18482,2161.82332 5101.21275,2214.2739 C5153.58533,2214.2739 5205.92997,2214.2739 5258.30001,2214.2739 C5258.30001,2161.82078 5258.30001,2109.39563 5258.30001,2056.94505 C5205.92997,2056.94505 5153.58533,2056.94505 5101.21275,2056.94505 M5306.16878,2090.70687 C5306.14086,2116.58127 5306.14086,2142.48363 5306.16878,2168.35803 C5314.23196,2168.35803 5322.29514,2168.35803 5330.43956,2168.35803 C5330.43956,2142.48363 5330.43956,2116.58127 5330.43956,2090.70687 C5322.32307,2090.68144 5314.2345,2090.68144 5306.16878,2090.70687 M5347.96986,2090.70687 C5347.96986,2115.96085 5347.94447,2141.2428 5347.99779,2166.49424 C5347.80992,2168.24869 5348.34814,2169.92433 5349.1047,2171.59996 L5349.56168,2168.25124 C5356.30469,2168.30463 5363.31427,2168.386 5370.19184,2168.386 C5370.27308,2154.28679 5370.08521,2140.18759 5370.29847,2126.11635 C5380.0347,2139.97146 5389.49929,2154.07066 5398.93849,2168.16987 C5406.62339,2168.4394 5414.36414,2168.386 5422.13028,2168.35803 C5422.13028,2142.45566 5422.13028,2116.58127 5422.13028,2090.70687 C5414.44538,2090.70687 5406.81126,2090.6789 5399.2076,2090.70687 C5399.17967,2104.99424 5399.17967,2119.25617 5399.2076,2133.54354 C5389.47136,2119.2816 5379.79098,2104.99424 5370.10806,2090.70687 C5362.69481,2090.70687 5355.30441,2090.68144 5347.96986,2090.70687 M5101.21275,2250.73859 C5101.18482,2303.19171 5101.21275,2355.61686 5101.21275,2408.06743 C5153.58533,2408.06743 5205.92997,2408.06743 5258.30001,2408.06743 C5258.30001,2355.61432 5258.30001,2303.18917 5258.30001,2250.73859 C5205.92997,2250.71316 5153.58533,2250.73859 5101.21275,2250.73859 M5329.20063,2288.74161 C5295.59729,2295.89928 5292.4695,2349.8653 5322.35099,2363.80177 C5338.28948,2369.71607 5358.65053,2369.8254 5371.91821,2357.83154 C5384.86347,2345.05707 5385.56417,2323.88156 5379.46855,2307.70244 C5371.29875,2288.79501 5347.40371,2283.96136 5329.20063,2288.74161 M5395.83863,2288.57888 C5395.97319,2305.08093 5395.5416,2321.61094 5396.00112,2338.11299 C5396.62058,2349.88818 5403.79518,2361.88204 5415.55229,2365.28416 C5426.33958,2368.06586 5437.96214,2368.55151 5448.8586,2365.87915 C5461.10315,2362.66519 5469.46083,2350.53657 5469.83911,2338.11299 C5470.24278,2321.58297 5469.83911,2305.08093 5470.00159,2288.57888 C5461.8851,2288.52548 5453.79399,2288.52548 5445.73082,2288.55091 C5445.48709,2305.59455 5446.13448,2322.66362 5445.46171,2339.70726 C5443.46622,2352.40036 5422.62027,2352.53766 5420.40899,2339.92339 C5419.65497,2322.82635 5420.32774,2305.67592 5420.11195,2288.55091 C5411.96499,2288.52548 5403.87388,2288.52548 5395.83863,2288.57888 M5480.78889,2307.43291 C5488.82668,2307.43291 5496.91524,2307.46088 5505.05966,2307.46088 C5505.03427,2327.04213 5505.03427,2346.59794 5505.05966,2366.17919 C5513.09745,2366.17919 5521.16063,2366.17919 5529.30505,2366.23258 C5529.35836,2346.62337 5529.27966,2327.04213 5529.33297,2307.46088 C5537.39615,2307.43291 5545.45933,2307.43291 5553.60375,2307.46088 C5553.55043,2301.13976 5553.55043,2294.84661 5553.60375,2288.55345 C5529.33297,2288.52548 5505.0622,2288.52548 5480.79142,2288.55345 C5480.73303,2294.84661 5480.73303,2301.11179 5480.78889,2307.43291 M1976.96993,2582.57722 C1949.2464,2603.48321 1934.08986,2637.40521 1930.42386,2671.38316 C1926.88987,2704.76611 1928.29382,2739.8781 1942.04641,2770.99552 C1954.77588,2797.89716 1975.70307,2822.34002 2003.72109,2833.71093 C2027.23785,2843.08328 2052.91003,2845.35135 2078.01861,2844.97504 C2104.44735,2844.92164 2132.11755,2840.06002 2153.96125,2824.25975 C2179.47349,2806.78386 2194.46755,2777.6421 2201.26388,2748.09352 C2175.96743,2740.07134 2150.45519,2732.69755 2125.16129,2724.64994 C2122.43717,2735.66995 2119.25607,2746.79675 2113.26708,2756.54796 C2095.60222,2788.95961 2039.88607,2787.28398 2024.46042,2753.71286 C2016.55972,2736.07678 2015.91233,2716.30483 2015.77778,2697.29061 C2016.20937,2677.89753 2017.77326,2656.80338 2030.12445,2640.92175 C2046.00962,2618.99106 2079.93539,2614.48033 2101.69784,2630.06447 C2112.10686,2637.05941 2118.23041,2648.40488 2121.76185,2660.18007 C2147.38072,2654.45394 2173.00213,2648.86257 2198.59307,2643.02964 C2191.74344,2621.80073 2180.92822,2601.4338 2164.6673,2585.93103 C2143.12064,2564.99962 2112.48514,2557.14017 2083.27897,2555.76203 C2046.44121,2553.6516 2006.95804,2559.53792 1976.96993,2582.57722 M2259.56705,2578.79625 C2218.38797,2614.50322 2216.39249,2686.42824 2256.62714,2723.59472 C2274.74898,2741.34014 2300.88068,2749.33436 2325.90801,2746.85015 C2346.53817,2745.98563 2364.93166,2734.74949 2379.43828,2720.75962 C2376.98327,2739.69248 2376.22925,2759.51782 2368.30063,2777.23782 C2361.85466,2791.65995 2344.00193,2801.16706 2328.92663,2794.28146 C2317.8423,2789.7987 2314.20168,2777.31918 2311.88377,2766.706 C2285.77746,2770.05472 2259.64575,2773.16189 2233.5699,2776.69877 C2239.34056,2795.57823 2249.34591,2813.89067 2265.31232,2826.01675 C2279.4965,2837.19949 2297.32385,2842.38404 2315.09533,2844.05967 C2341.19911,2846.27435 2368.70684,2845.70733 2392.9243,2834.44322 C2413.12286,2825.47516 2430.30281,2809.64947 2440.36148,2789.90549 C2454.06075,2763.97515 2457.43226,2734.13162 2458.34876,2705.23143 C2458.6458,2677.30254 2456.54115,2648.67441 2446.21337,2622.44658 C2436.8021,2599.05639 2420.13498,2577.58338 2396.94319,2566.7795 C2374.15507,2556.40787 2348.48288,2554.43729 2323.8059,2555.73152 C2300.80198,2556.89099 2277.20652,2563.34687 2259.56705,2578.79625 M2572.99009,2558.56662 C2553.84258,2562.2942 2535.31707,2570.83 2521.56194,2584.90124 C2506.00174,2601.26853 2498.85506,2623.55265 2494.94533,2645.3206 C2490.09118,2675.27347 2489.52503,2705.93066 2492.81529,2736.09966 C2495.13574,2755.06049 2498.85506,2774.15608 2506.94616,2791.57604 C2518.97492,2816.2096 2541.92299,2835.92561 2569.05244,2841.46358 C2593.59486,2846.6227 2619.45491,2846.3786 2643.96941,2840.97793 C2665.59731,2836.16971 2685.90505,2823.53 2697.44636,2804.27168 C2712.46834,2779.36859 2716.94422,2749.79458 2718.80515,2721.21731 C2720.66608,2686.59098 2718.50811,2651.1815 2707.28922,2618.14943 C2701.03366,2599.5395 2688.49207,2583.27901 2672.55358,2571.98947 C2643.34995,2552.92185 2606.18723,2552.84048 2572.99009,2558.56662 M1506.40631,2559.99815 C1506.353,2653.39618 1506.37838,2746.79675 1506.37838,2840.22275 C1536.04407,2840.22275 1565.70723,2840.22275 1595.40084,2840.22275 C1623.36555,2839.87186 1651.84563,2842.2747 1679.16295,2834.63138 C1710.01425,2828.82388 1735.7956,2806.24481 1749.57612,2778.50662 C1763.62575,2750.98456 1764.32645,2719.13993 1763.86947,2688.88957 C1762.27766,2650.96791 1751.03338,2610.26456 1720.69491,2585.28264 C1698.76997,2566.56591 1669.37593,2560.59568 1641.32745,2560.11003 C1596.34527,2559.83542 1551.36056,2560.10494 1506.40631,2559.99815 M3617.19195,2661.2836 C3609.96403,2682.70066 3609.4512,2706.17222 3614.30789,2728.18682 C3620.72594,2754.89776 3641.27485,2779.53132 3668.99838,2785.12269 C3691.32698,2789.47069 3715.54444,2790.44454 3737.03779,2781.85534 C3758.66569,2772.88728 3772.06793,2751.36088 3777.21912,2729.24203 C3761.71223,2724.56857 3746.15202,2720.05784 3730.67306,2715.30556 C3727.92355,2726.13741 3723.95797,2738.10076 3713.9247,2744.28712 C3701.736,2750.82437 3684.9064,2750.04122 3674.57862,2740.34341 C3665.32983,2731.21516 3664.68244,2717.30411 3663.84464,2705.15006 C3663.62885,2691.42971 3663.7634,2676.33123 3672.09569,2664.71623 C3682.82967,2649.15752 3708.07026,2647.2149 3721.12469,2660.85388 C3725.22483,2664.79759 3727.19238,2670.33557 3729.53822,2675.43875 C3744.93594,2671.95526 3760.38952,2668.60654 3775.81517,2665.22985 C3769.3692,2645.59521 3756.50518,2626.55302 3736.71282,2618.69357 C3715.43527,2610.37389 3691.59609,2610.3205 3669.50867,2615.10075 C3645.75073,2620.33615 3625.03933,2638.08157 3617.19195,2661.2836 M3991.72352,2639.16221 C3981.25865,2656.04312 3983.87614,2680.10966 3998.97683,2693.42318 C4014.862,2707.30626 4036.16493,2712.08651 4056.17563,2716.67861 C4065.28986,2719.29758 4076.1584,2721.3775 4081.52539,2730.18283 C4086.24499,2738.39317 4080.69013,2748.76479 4072.4924,2752.03469 C4061.73303,2756.35726 4048.24701,2755.33001 4039.2394,2747.68669 C4032.6868,2742.04192 4030.66339,2733.31796 4028.91163,2725.26781 C4012.10996,2726.75274 3995.25497,2727.34773 3978.48122,2728.66993 C3980.12636,2743.63365 3985.4121,2758.65077 3996.06484,2769.61738 C4009.52294,2784.01408 4030.31304,2786.98394 4049.02895,2788.06458 C4071.87039,2789.03843 4097.30139,2786.98394 4115.36992,2771.31844 C4136.75663,2753.73575 4141.71742,2717.84062 4121.92252,2697.23213 C4104.79842,2680.53938 4080.09605,2676.46091 4057.76491,2671.03227 C4049.37677,2668.71079 4038.05125,2668.2226 4034.08821,2659.06637 C4033.03715,2653.66316 4036.40612,2647.69547 4041.61317,2645.83168 C4050.40497,2642.18547 4061.19227,2642.94065 4069.30876,2648.04636 C4075.34853,2651.99007 4077.6969,2659.17317 4079.31411,2665.87315 C4095.92537,2665.25274 4112.53917,2663.68644 4129.17836,2663.22621 C4127.15495,2647.04709 4119.90165,2630.35688 4105.1767,2622.0372 C4085.97588,2611.36808 4063.02527,2610.9638 4041.69441,2612.71825 C4022.57482,2614.20572 4001.75426,2621.68631 3991.72352,2639.16221 M4164.28975,2639.21561 C4153.82488,2656.12448 4156.49568,2680.18849 4171.62429,2693.45115 C4187.07787,2706.92994 4207.6801,2711.87293 4227.17797,2716.30229 C4236.83296,2719.0306 4248.42759,2720.94778 4254.17286,2730.26673 C4258.72997,2738.39571 4253.36298,2748.57918 4245.29981,2751.95587 C4234.56583,2756.35726 4221.02903,2755.38595 4211.94018,2747.79603 C4205.30634,2742.15126 4203.25754,2733.34593 4201.50324,2725.27035 C4184.70157,2726.75528 4167.84658,2727.35027 4151.07284,2728.67247 C4153.0404,2751.17272 4165.71654,2774.61631 4188.101,2782.17826 C4210.05387,2789.3639 4233.97429,2789.79361 4256.65325,2785.93127 C4277.66169,2782.31302 4297.45658,2768.10448 4304.14374,2747.30783 C4311.34373,2727.61725 4305.22272,2702.98623 4287.37,2691.1551 C4266.55197,2676.86774 4240.71476,2674.40896 4217.06345,2667.60218 C4210.6454,2666.14268 4203.71452,2659.41727 4207.4897,2652.53167 C4211.96557,2642.67366 4225.20787,2642.64569 4234.3221,2644.72561 C4244.54325,2646.61737 4250.26059,2656.44741 4252.01235,2665.98249 C4268.5703,2665.09 4285.15618,2663.76781 4301.76744,2663.22876 C4299.74403,2647.10303 4292.54404,2630.46622 4277.90033,2622.12111 C4258.67158,2611.3452 4235.58642,2610.96634 4214.17431,2612.74876 C4195.08774,2614.23369 4174.29509,2621.74225 4164.28975,2639.21561 M3785.17567,2785.44562 C3803.10964,2785.60835 3821.04361,2785.47359 3839.0309,2785.52698 C3842.05205,2776.12666 3844.91072,2766.64752 3847.71354,2757.1938 C3867.61507,2757.11244 3887.54452,2757.22177 3907.47397,2757.14041 C3910.2514,2766.59412 3913.11007,2776.01987 3915.96875,2785.47359 C3934.38762,2785.52698 3952.8065,2785.58038 3971.25331,2785.44562 C3950.057,2728.53771 3929.04856,2671.54589 3907.85225,2614.63798 C3888.35439,2614.74477 3868.88446,2614.66595 3849.43991,2614.69138 C3827.94656,2671.57386 3806.6944,2728.56313 3785.17567,2785.44562 M4332.62382,2614.69138 C4332.62382,2671.65523 4332.59589,2728.5911 4332.65175,2785.52698 C4380.70839,2785.52698 4428.79296,2785.49901 4476.87753,2785.55495 C4476.90545,2772.69912 4476.87753,2759.86871 4476.90545,2747.03831 C4446.32326,2747.01034 4415.769,2747.06628 4385.21473,2747.01034 C4385.1868,2735.74623 4385.1868,2724.51009 4385.21473,2713.27649 C4412.85701,2713.24852 4440.49929,2713.27649 4468.14157,2713.27649 C4468.11364,2701.5547 4468.11364,2689.85833 4468.14157,2678.16451 C4440.44598,2678.05771 4412.77577,2678.35267 4385.1081,2678.00178 C4385.21727,2669.06168 4385.18934,2660.12159 4385.16142,2651.20947 C4414.82711,2651.07471 4444.51819,2651.1815 4474.20927,2651.15607 C4474.18134,2639.00202 4474.18134,2626.84797 4474.20927,2614.69392 C4427.01327,2614.69138 4379.81981,2614.69138 4332.62382,2614.69138 M4493.08512,2614.69138 C4493.0572,2628.87195 4493.0572,2643.05252 4493.11305,2657.23055 C4511.07495,2657.23055 4529.03431,2657.20258 4547.02159,2657.25852 C4547.02159,2700.01383 4546.99366,2742.76913 4547.04952,2785.52698 C4564.55189,2785.49901 4582.05427,2785.49901 4599.58457,2785.52698 C4599.63789,2742.77168 4599.55665,2699.9884 4599.63789,2657.2331 C4617.59979,2657.2331 4635.55914,2657.2331 4653.54643,2657.2331 C4653.54643,2643.05252 4653.5185,2628.87195 4653.54643,2614.69392 C4600.03902,2614.69138 4546.56207,2614.69138 4493.08512,2614.69138 M4665.0065,2614.69138 C4664.97857,2628.87195 4664.97857,2643.05252 4665.03443,2657.23055 C4682.99632,2657.31192 4701.009,2657.06782 4719.02421,2657.36532 C4718.83634,2700.06723 4718.97089,2742.7971 4718.94297,2785.52444 C4736.44534,2785.52444 4753.97311,2785.52444 4771.53134,2785.52444 C4771.53134,2742.74116 4771.50341,2699.98586 4771.53134,2657.23055 C4789.49323,2657.23055 4807.45259,2657.23055 4825.43988,2657.23055 C4825.4678,2643.04998 4825.43988,2628.86941 4825.4678,2614.69138 C4771.96039,2614.69138 4718.48345,2614.69138 4665.0065,2614.69138 M4849.73604,2614.71935 C4849.73604,2671.65523 4849.70811,2728.5911 4849.76397,2785.52698 C4897.87392,2785.36425 4946.01181,2785.82448 4994.14969,2785.28288 C4993.85265,2772.53384 4994.04052,2759.7848 4994.01513,2747.06373 C4963.46087,2747.01034 4932.9066,2747.01034 4902.37773,2747.06373 C4902.2711,2735.80217 4902.32441,2724.53806 4902.32441,2713.30192 C4929.93877,2713.24852 4957.58105,2713.27395 4985.25125,2713.27395 C4985.22333,2701.55216 4985.22333,2689.85579 4985.25125,2678.16196 C4957.58105,2678.134 4929.93877,2678.18993 4902.29648,2678.134 C4902.29648,2669.14051 4902.29648,2660.14702 4902.32441,2651.17896 C4931.96218,2651.12556 4961.62787,2651.17896 4991.31895,2651.15099 C4991.29102,2638.99694 4991.29102,2626.84289 4991.31895,2614.71426 C4944.12549,2614.69138 4896.9295,2614.69138 4849.73604,2614.71935 M1789.5442,2707.19947 C1789.5442,2727.45706 1789.5442,2747.71466 1789.5442,2767.97226 C1827.29845,2767.97226 1865.05525,2767.97226 1902.80951,2767.97226 C1902.80951,2747.71466 1902.80951,2727.45706 1902.80951,2707.19947 C1865.05271,2707.19947 1827.29845,2707.19947 1789.5442,2707.19947 Z" id="SvgjsPath1037" stroke="#FFFFFF" fill="#FFFFFF"></path>
            <path d="M3618.05988,2661.98054 C3625.90287,2638.97449 3646.60267,2621.37896 3670.34985,2616.18526 C3692.42491,2611.44539 3716.25074,2611.49833 3737.51638,2619.74774 C3757.3002,2627.5408 3770.15701,2646.42214 3776.59684,2665.89093 C3761.17982,2669.2391 3745.7349,2672.55954 3730.34579,2676.01359 C3728.00127,2670.951 3726.03227,2665.46233 3721.93697,2661.55193 C3708.89239,2648.02816 3683.66339,2649.95688 3672.93542,2665.38165 C3664.6078,2676.89854 3664.47332,2691.86697 3664.68899,2705.47394 C3665.52379,2717.52533 3666.17081,2731.31887 3675.41696,2740.37002 C3685.73896,2749.98339 3702.55913,2750.75993 3714.74101,2744.28042 C3724.76867,2738.14883 3728.72949,2726.28401 3731.47999,2715.54366 C3746.95029,2720.25832 3762.50179,2724.72843 3778,2729.36241 C3772.85169,2751.29695 3759.45695,2772.64152 3737.84116,2781.5313 C3716.35985,2790.04795 3692.15595,2789.08233 3669.83984,2784.77106 C3642.13184,2779.22692 3621.59443,2754.80395 3615.17997,2728.31611 C3610.32346,2706.48999 3610.83601,2683.21669 3618.05988,2661.98054 Z" id="SvgjsPath1036" stroke="#000000" fill="#000000"></path>
            <path d="M3989.25026,2640.02423 C3999.28956,2622.68094 4020.12011,2615.25711 4039.25118,2613.78345 C4060.59487,2612.04231 4083.55927,2612.44353 4102.77164,2623.03169 C4117.50544,2631.28824 4124.7631,2647.8518 4126.78773,2663.90816 C4110.13854,2664.36489 4093.51475,2665.91931 4076.8935,2666.53501 C4075.27532,2659.88839 4072.92807,2652.75728 4066.88214,2648.84349 C4058.76076,2643.77652 4047.96699,2643.02707 4039.16989,2646.64562 C4033.96226,2648.49527 4030.58872,2654.41767 4031.64041,2659.77989 C4035.60584,2668.86663 4046.9407,2669.3486 4055.33135,2671.65498 C4077.67337,2677.04243 4102.39313,2681.08995 4119.52752,2697.65604 C4139.33432,2718.10815 4134.36802,2753.73091 4112.97098,2771.18019 C4094.8916,2786.72682 4069.44531,2788.7632 4046.59014,2787.79926 C4027.86297,2786.72682 4007.05783,2783.7795 3993.59419,2769.49204 C3982.93505,2758.60864 3977.64612,2743.70547 3976,2728.85529 C3992.78383,2727.54312 4009.64895,2726.95265 4026.46072,2725.47899 C4028.21353,2733.46553 4030.23816,2742.12582 4036.7947,2747.72776 C4045.80772,2755.31308 4059.29931,2756.33253 4070.06769,2752.04276 C4078.27035,2748.8002 4083.82855,2738.50727 4079.10611,2730.35671 C4073.73589,2721.61819 4062.86083,2719.55406 4053.74111,2716.95496 C4033.71839,2712.39771 4012.4001,2707.65373 3996.50792,2693.87599 C3981.39816,2680.66098 3978.7791,2656.77705 3989.25026,2640.02423 Z" id="SvgjsPath1035" stroke="#000000" fill="#000000"></path>
            <path d="M4164.20999,2640.0607 C4174.21394,2622.72428 4195.00369,2615.27565 4214.09268,2613.80257 C4235.5018,2612.03437 4258.58374,2612.41021 4277.80981,2623.10012 C4292.45148,2631.37862 4299.65047,2647.88517 4301.6736,2663.87968 C4285.06465,2664.41443 4268.48108,2665.7286 4251.92544,2666.61144 C4250.17139,2657.15246 4244.45738,2647.40087 4234.23766,2645.52421 C4225.1247,2643.46089 4211.88425,2643.48864 4207.40899,2653.26797 C4203.63435,2660.10114 4210.56426,2666.77287 4216.98141,2668.2182 C4240.62943,2674.97066 4266.46049,2677.40981 4287.27816,2691.58315 C4305.1284,2703.31986 4311.24855,2727.7543 4304.04957,2747.28773 C4297.36334,2767.9184 4277.5712,2782.01355 4256.56569,2785.60292 C4233.8899,2789.43444 4209.97281,2789.00563 4188.023,2781.87986 C4165.64166,2774.37826 4152.96982,2751.11925 4151,2728.8011 C4167.77141,2727.48945 4184.62405,2726.89921 4201.42338,2725.42613 C4203.17489,2733.43726 4205.22594,2742.17231 4211.85886,2747.77203 C4220.94644,2755.30138 4234.48135,2756.26494 4245.21383,2751.89867 C4253.27589,2748.54893 4258.64213,2738.44674 4254.08565,2730.38264 C4248.34118,2721.13806 4236.74817,2719.23617 4227.09452,2716.52964 C4207.59938,2712.13563 4186.99748,2707.23209 4171.54859,2693.86088 C4156.41701,2680.70658 4153.74912,2656.83463 4164.20999,2640.0607 Z" id="SvgjsPath1034" stroke="#000000" fill="#000000"></path>
            <path d="M3782,2784.91459 C3803.85927,2727.66347 3825.44261,2670.30486 3847.27351,2613.05374 C3867.02344,2613.02559 3886.79915,2613.10749 3906.60323,2613 C3928.13243,2670.27671 3949.4708,2727.63788 3971,2784.91459 C3952.26349,2785.05023 3933.55534,2784.99648 3914.84719,2784.94274 C3911.94362,2775.42776 3909.04006,2765.94093 3906.21901,2756.42595 C3885.97656,2756.50784 3865.73411,2756.39779 3845.52003,2756.47969 C3842.67061,2765.99467 3839.76705,2775.53524 3836.70103,2784.99648 C3818.43125,2784.94274 3800.21562,2785.07838 3782,2784.91459 M3857.02341,2719.0186 C3869.62272,2719.1005 3882.2504,2719.07235 3894.90645,2719.04675 C3888.71509,2698.52224 3882.36128,2678.02587 3876.22666,2657.50135 C3869.65109,2677.94398 3863.65314,2698.57598 3857.02341,2719.0186 Z" id="SvgjsPath1033" stroke="#000000" fill="#000000"></path>
            <path d="M4332.00638,2613 C4379.43355,2613 4426.86073,2613 4474.29046,2613 C4474.26239,2625.23507 4474.26239,2637.47014 4474.29046,2649.70521 C4444.45234,2649.73337 4414.61167,2649.6233 4384.80161,2649.75896 C4384.82967,2658.73049 4384.85519,2667.73018 4384.74803,2676.72987 C4412.55527,2677.0831 4440.35996,2676.78362 4468.19272,2676.89369 C4468.16465,2688.66802 4468.16465,2700.4398 4468.19272,2712.23973 C4440.41354,2712.23973 4412.63436,2712.21157 4384.85519,2712.23973 C4384.82712,2723.55077 4384.82712,2734.86181 4384.85519,2746.19845 C4415.56077,2746.2522 4446.26635,2746.19845 4477,2746.2266 C4476.97194,2759.14254 4477,2772.05591 4476.97194,2785 C4428.64923,2784.94625 4380.32653,2784.97184 4332.03189,2784.97184 C4331.98086,2727.65899 4332.00638,2670.34357 4332.00638,2613 Z" id="SvgjsPath1032" stroke="#000000" fill="#000000"></path>
            <path d="M4492.0187,2613 C4546.00307,2613 4599.98744,2613 4654,2613 C4653.97181,2627.27744 4654,2641.55488 4654,2655.82976 C4635.84204,2655.82976 4617.70971,2655.82976 4599.57994,2655.82976 C4599.49793,2698.87712 4599.57994,2741.95264 4599.52612,2785 C4581.82948,2784.97184 4564.16103,2784.97184 4546.49258,2785 C4546.43876,2741.95264 4546.46439,2698.90528 4546.46439,2655.85536 C4528.30643,2655.8016 4510.1741,2655.8272 4492.04433,2655.8272 C4491.99051,2641.55488 4491.99051,2627.27744 4492.0187,2613 Z" id="SvgjsPath1031" stroke="#000000" fill="#000000"></path>
            <path d="M4664.0187,2613 C4718.00307,2613 4771.99,2613 4826,2613 C4825.97181,2627.27744 4826,2641.55488 4825.97181,2655.82976 C4807.81385,2655.82976 4789.68152,2655.82976 4771.55175,2655.82976 C4771.52356,2698.87712 4771.55175,2741.92448 4771.55175,2785 C4753.82948,2785 4736.13284,2785 4718.46439,2785 C4718.49258,2741.97824 4718.35419,2698.95904 4718.5464,2655.96544 C4700.36025,2655.66591 4682.1741,2655.91168 4664.04433,2655.82976 C4663.99051,2641.55488 4663.99051,2627.27744 4664.0187,2613 Z" id="SvgjsPath1030" stroke="#000000" fill="#000000"></path>
            <path d="M4848.00607,2613.02112 C4895.38915,2612.99296 4942.77224,2612.99296 4990.15788,2613.02112 C4990.12984,2625.23056 4990.12984,2637.46559 4990.15788,2649.70062 C4960.3475,2649.72878 4930.5626,2649.67247 4900.80575,2649.72878 C4900.77771,2658.7566 4900.77771,2667.81001 4900.77771,2676.86343 C4928.53106,2676.91718 4956.28441,2676.86343 4984.06581,2676.89158 C4984.03777,2688.66588 4984.03777,2700.43762 4984.06581,2712.23752 C4956.28441,2712.23752 4928.53106,2712.20937 4900.80575,2712.26568 C4900.80575,2723.57669 4900.75222,2734.91585 4900.85928,2746.25245 C4931.51083,2746.1987 4962.18786,2746.1987 4992.8649,2746.25245 C4992.89294,2759.05829 4992.70177,2771.89227 4993,2784.72626 C4944.66869,2785.2689 4896.33738,2784.80817 4848.0341,2784.97199 C4847.98058,2727.65162 4848.00607,2670.33637 4848.00607,2613.02112 Z" id="SvgjsPath1029" stroke="#000000" fill="#000000"></path>
            <path d="M3857,2716.94701 C3863.65065,2697.02619 3869.66753,2676.92082 3876.26127,2657 C3882.41525,2677.00062 3888.7917,2696.97381 3895,2716.97444 C3882.30919,2716.99938 3869.64166,2717.02681 3857,2716.94701 Z" id="SvgjsPath1028" stroke="#FFFFFF" fill="#FFFFFF"></path>
        </g>
    </g>
</svg><style>@media (prefers-color-scheme: light) { :root { filter: none; } }
@media (prefers-color-scheme: dark) { :root { filter: none; } }
</style></svg>