<svg  viewBox="0 0 278 279" xmlns="http://www.w3.org/2000/svg"><path d="m232.880889 42.362714c2.569-14.89 6.339-24.2533 10.515-24.2711h.008c7.787.0268 14.099 32.4986 14.099 72.5898 0 40.0916-6.321 72.5896-14.116 72.5896-3.196 0-6.145-5.518-8.519-14.765-3.752 33.85-11.538 57.119-20.552 57.119-6.974 0-13.233-13.978-17.435-36.022-2.869 41.924-10.09 71.669-18.53 71.669-5.297 0-10.126-11.787-13.701-30.979-4.299 39.617-14.231 67.376-25.813 67.376s-21.532-27.75-25.813-67.376c-3.549 19.192-8.378 30.979-13.7012003 30.979-8.4396 0-15.6432-29.745-18.53-71.669-4.2021 22.044-10.4435 36.022-17.4353 36.022-9.0045 0-16.7996-23.261-20.5515-57.119-2.3571 9.274-5.3233 14.765-8.519 14.765-7.7951 0-14.116-32.498-14.116-72.5896 0-40.0912 6.3209-72.5898 14.116-72.5898 4.1844 0 7.9275 9.39 10.5229 24.2711 4.158-25.6752 10.9114-42.362714 18.5476-42.362714 9.0664 0 16.9233 23.600414 20.6399 57.869814 3.6371-24.9419 9.1546-40.8425 15.3342-40.8425 8.6604003 0 16.0224003 31.2735 18.7504003 74.8972 5.129-22.3663 12.554-36.3978 20.773-36.3978 8.218 0 15.643 14.0404 20.763 36.3978 2.737-43.6237 10.09-74.8972 18.751-74.8972 6.17 0 11.679 15.9006 15.334 40.8425 3.708-34.2694 11.565-57.869814 20.631-57.869814 7.61 0 14.389 16.696514 18.547 42.362714zm-232.880889 41.1791c0-17.9217 3.5841687-32.4539 8.0069887-32.4539 4.4228 0 8.007 14.5322 8.007 32.4539 0 17.9212-3.5842 32.4542-8.007 32.4542-4.42282 0-8.0069887-14.533-8.0069887-32.4542zm261.653889 0c0-17.9217 3.584-32.4539 8.007-32.4539 4.422 0 8.007 14.5322 8.007 32.4539 0 17.9212-3.585 32.4542-8.007 32.4542-4.423 0-8.007-14.533-8.007-32.4542z" fill="#a238ff" fill-rule="evenodd" transform="translate(.0891 .511)"/></svg>
